# xmcd CD database file
#
# Track frame offsets:
#	150
#	14357
#	26607
#	38370
#	53635
#	72237
#	89682
#	108087
#	121687
#	138797
#	153297
#	167992
#
# Disc length: 2449 seconds
#
# Revision: 0
# Processed by: cddbd v1.5.2PL0 Copyright (c) Steve Scherf et al.
# Submitted via: CDex 1.51
#
DISCID=8b098f0c
DTITLE=Various Artist - Country's Greatest Hits of the 80's and 90's (3)
DYEAR=2003
DGENRE=Country
TTITLE0=How Forever Feels - Kenny Chesney
TTITLE1=It's A Little Too Late - Mark Chesnutt
TTITLE2=My Baby Loves Me - Martina McBride
TTITLE3=Little Red Rodeo - Collin Raye
TTITLE4=Reasons Why - Nickel Creek
TTITLE5=26 Cents - The Wilkinsons
TTITLE6=Three Chords and the Truth - Sara Evens
TTITLE7=Money in the Bank - John Anderson
TTITLE8=Just Let Me Be In Love - Tracy Byrd
TTITLE9=Guys Do It All the Time - Mindy McCready
TTITLE10=Move On - The Warren Brothers
TTITLE11=You Won't Ever Be Lonely - Andy Griggs
EXTD=YEAR: 2003
EXTT0=
EXTT1=
EXTT2=
EXTT3=
EXTT4=
EXTT5=
EXTT6=
EXTT7=
EXTT8=
EXTT9=
EXTT10=
EXTT11=
PLAYORDER=
